<?xml version="1.0" encoding="utf-8"?>
<!-- Generator: Adobe Illustrator 19.2.1, SVG Export Plug-In . SVG Version: 6.00 Build 0)  -->
<svg version="1.1" id="layer" xmlns="http://www.w3.org/2000/svg" xmlns:xlink="http://www.w3.org/1999/xlink" x="0px" y="0px"
	 viewBox="0 0 652 652" style="enable-background:new 0 0 652 652;" xml:space="preserve">
<style type="text/css">
	.st0{fill:#D73648;}
	.st1{fill:#FFFFFF;}
</style>
<rect x="60.1" y="328.2" class="st0" width="519.8" height="243.9"/>
<path class="st1" d="M534.1,405.3c-2.8,1.7-13.7,1.8-20.2,1.8c0-7.9,0-16.6,0-24.7c0-4.4,0-9.1,0.4-13.7c0-2.3-0.6-3.5-4.8-3.5h-5
	c0.4,6,0.6,11.7,0.6,17.4v12.8c0,4.5,0,9-0.4,13.7c0,1.8,0,3.5,4.4,3.5H531c1.7-0.3,3-1.7,3.2-3.4
	C534.2,409.1,534.1,407.9,534.1,405.3z M421.5,389.2h-5.2c0.6,3.4,0.8,6.9,0.6,10.4c0,2.3,0,4.7,0,7c-3.2,1.1-6.7,1.7-10.1,1.6
	c-9.6,0.5-17.8-6.9-18.3-16.5c0-0.8,0-1.6,0-2.4c0-10.9,6.2-19.4,17.7-19.4c5.8,0.4,11.3,2.7,15.6,6.6l1.5-4.2
	c0.7-1.6,0-3.4-1.6-4.2c-4.9-2.2-10.2-3.3-15.6-3.2c-15.6,0-27.4,7.4-27.4,24.3c0,16.8,11.9,24.2,27.1,24.2
	c6.7-0.3,13.3-1.4,19.7-3.4v-6.2c0-3.8,0-7.2,0-11.1c0-1.9-1.5-3.5-3.5-3.5C421.8,389.1,421.6,389.2,421.5,389.2z M467.8,447.1H460
	c0.1,1.3-0.1,2.7-0.6,3.9c-1.6,3.3-3.5,6.7-5.2,10c-1.7,3.3-5.9,10-7.8,13c-4.7-7.7-8.8-15.6-13-23.5c-1.2-2.2-3.6-3.6-6.1-3.3h-9.7
	c8.2,11.7,14.5,22.3,21.3,33.9c0,6.7,0,15.6-0.5,22.5c-0.1,1.7,1.2,3.3,3,3.4c0.3,0,0.6,0,0.9-0.1h8.7c-1-8.5-1-18.3-1-26.5
	c5.6-10.1,12.1-19.5,19-29.7c0.5-0.6,0.7-1.3,0.6-2.1c0-0.9-0.8-1.6-1.7-1.6c0,0-0.1,0-0.1,0L467.8,447.1z M343.4,376
	c0.2-3.9,3.6-6.9,7.5-6.7c0.1,0,0.2,0,0.2,0c4.2,0,8.2,2.3,10.4,5.9c1.3-1.7,2.2-3.7,2.5-5.9c0-4-9.1-5.2-12.2-5.2
	c-8.2,0-16.2,4.5-16.2,13.4c0,15.6,22.2,11.4,22.2,21.8c0.2,4.3-3.2,7.9-7.5,8.1c-0.3,0-0.7,0-1,0c-5.4,0.1-10.5-2.4-13.8-6.8
	c-0.6,1.9-1,3.8-1.2,5.7c-0.2,1.8,0.9,3.5,2.5,4.3c3.1,1.5,6.5,2.3,10,2.3c9.4,0,18.4-5.2,18.4-15.6
	C365.5,382.5,343.4,387,343.4,376z M324.3,365H318c-1.2,3.9-2.9,7.5-5.2,10.9c-2.7,4.3-5.2,8.5-6.6,10.4
	c-3.8-6.1-7.4-12.3-11.1-18.4c-1-1.9-3.1-2.9-5.2-2.7h-7.8c6.6,9,12.7,18.3,18.6,27.8v5.2c0,4.4-0.4,9.1-0.4,11.7
	c0.1,1.5,1.3,2.6,2.8,2.5c0.1,0,0.2,0,0.4,0h6.4c-0.6-6.8-0.9-13.6-0.7-20.5c3.4-5.8,7.2-11.5,11.2-16.9c1.6-2.4,3.4-4.8,5.2-7.1
	c0.3-0.5,0.6-1,0.6-1.6c-0.1-0.8-0.8-1.4-1.6-1.3C324.5,364.9,324.4,364.9,324.3,365z M270.2,365.2h-26.9c0,2.5,0.4,4.9,0.6,7.4
	c0,4.5,0,14,0,17.5c0,8.2-0.4,12.5-0.4,18.9c-0.2,1.7,1,3.3,2.7,3.5c0.3,0,0.6,0,0.9,0h5.9c-0.1-5.5-0.6-10.8-0.6-16.3v-6.2
	c6.3-0.1,12.6,0.3,18.8,1.2c0-2.2,0.6-6.3-2.7-6.3s-9.6,0.7-16.1,0.7v-9.9c0-1.8,0-3.6,0-5.5c6.8-0.3,13.5,0.2,20.1,1.7
	C273,369.4,273.7,365.3,270.2,365.2L270.2,365.2z M220.5,386.4c0-9.4,0.5-11.6,0.5-17.4c0.4-1.8-0.8-3.6-2.6-4
	c-0.4-0.1-0.8-0.1-1.3,0h-5.6c0.6,7.3,0.9,14.6,0.7,21.9c0,11.7-0.5,14.3-0.5,21.5c-0.3,1.9,1,3.6,2.9,3.9c0.2,0,0.5,0,0.7,0h5.9
	C220.8,407,220.5,399.1,220.5,386.4L220.5,386.4z M257.6,484.5c-5.9,2.1-12.2,3-18.4,2.4c-1.8,0-2.1-1.1-2.2-3.3v-17
	c6-0.3,12.1,0.3,17.9,1.7v-3.8c0-2.5-1.4-3.5-4.9-3.5s-8.4,0.6-13.4,0.6c0-2.9,0-6.7,0-9.6s0-6.1,0-8.5c14.2,0,17.8,1.2,19.9,2.1
	v-2.8c0.1-2.4-1.7-4.5-4.1-4.8h-27c1.1,2.5,1.5,5.2,1.4,8c0,7.2,0,17.5,0,26c0,5.1-0.1,10.3-0.4,15.6c0,2.7,0.5,4.3,3.3,4.3h23.2
	c2.1,0.5,4.1-0.8,4.6-2.8c0-0.2,0.1-0.4,0.1-0.6V484.5z M176.3,437.5c-9-4.4-18.8-6.7-28.8-6.7c-32.7,0-54.4,26.4-54.4,58.5
	c0,31.2,23.8,51.5,54.2,51.5c11.3,0.2,22.3-3,31.8-9.1l-1.2-10.4c-6.7,6.2-15.3,9.9-24.4,10.4c-26.9,0-44.9-22.3-44.9-48.3
	c0-22.2,12.7-44.1,37.1-44.1c8.2-0.2,16.2,2.6,22.6,7.9c3.5,3,6,7,7.1,11.5c3.2-4.1,5.3-8.9,6.2-14
	C181.3,441.4,179.2,438.7,176.3,437.5z M465.1,364.7c-15.6,0-26,8.3-26,24.3c0,15,11.7,24.1,26,24.1s26.4-9,26.4-23.9
	S479.7,364.7,465.1,364.7L465.1,364.7z M465.1,408.2c-11,0-16.5-9.3-16.5-19.3c0-10,5.5-19.4,16.5-19.4c11,0,16.5,9.3,16.5,19.6
	C481.7,400.2,477.7,408.3,465.1,408.2L465.1,408.2z M511.9,438.1c-8.7,0-17.7,0-26.5,0c1.2,1.9,1.8,4,1.9,6.2c0.6,8.1,1,15.9,1,24
	c-8.3,0-17.1,0-25.4,0c1.1,1.9,1.8,4,2,6.2c0.7,8.7,1,16.8,1,25.5c0,11.1,0,22.3-0.7,33.4c0,1.7,1.4,3,3.1,2.9c0.1,0,0.2,0,0.2,0
	h19.8c21.3,0,37.2-11.5,38.3-32.9c14.1-4.5,23.4-17.9,22.5-32.7c0.2-23.3-15-32.6-36.7-32.6L511.9,438.1z M526.4,496.3
	c-1.7-16.6-12.1-24.7-27.1-27.1c0-9.1,0.4-17.1,0.7-25.5c2.4-0.4,4.8-0.6,7.2-0.6c17.6,0,29.7,10.4,29.7,28.5
	c0.8,9.4-3,18.7-10.3,24.7L526.4,496.3z M511.7,500.5h-8.3c-1.6,0.2-3.1-0.9-3.3-2.5c0-0.1,0-0.2,0-0.3c-0.5-7.3-0.9-14.6-0.9-21.2
	c9.5,4.1,15.6,13.5,15.6,23.9L511.7,500.5z M489.4,530.8h-8.2c-1.6,0.3-3.1-0.8-3.4-2.4c0-0.1,0-0.2,0-0.3
	c-0.5-8.1-0.7-15.6-0.7-23.5c0-10.1,0-20.8,0.8-30.5c2.4-0.4,4.8-0.5,7.2-0.5c1.2-0.1,2.4-0.1,3.5,0c0,9.9-0.2,19.8-0.7,29.6
	c0.1,1.6,1.5,2.9,3.1,2.8c0.1,0,0.1,0,0.2,0h19.8c1.2,0,2.5,0,3.8,0c-1.1,14.3-8.9,24.8-25.1,24.8L489.4,530.8z M372,438.5
	c-10.9,0-22.7,0-32.1,0c1.8,2.5,2.5,7.4,3.1,17.3c0.4,7.2,0.6,14.5,0.6,21.8c0,8.9-0.1,17.8-0.4,26.7c0,4.9-0.6,9.6-0.6,14.5
	c0,2,1.7,3.6,3.7,3.6c0.1,0,0.2,0,0.3,0H371c27.1,0,47.3-15,47.3-43.4S399.2,438.5,372,438.5z M372,515.4h-10.4c-2,0.3-3.8-1-4.1-3
	c0-0.1,0-0.2,0-0.3c-0.4-2.4-0.5-6-0.6-8.5c0-5.5-0.4-13.7-0.4-20.5c0-12.6,0.6-25.1,1.1-37.5c3.1-0.5,6.2-0.8,9.3-0.8
	c21.7,0,36.7,12.3,36.7,35.1c0.2,20.1-9.6,35.5-31.1,35.5L372,515.4z M306.5,489.7c12.8-3.1,21.9-14.5,22.1-27.7
	c0-17.6-15.6-24-31.2-24c-9.9,0-19.9,0-29.9,0.4c1.2,3.1,1.8,6.3,1.7,9.6c0,12.1,0,23,0,31.4c0,23.3-1.1,36.7-1.1,41.1
	c0,1.8,0.7,2.1,2.3,2.1h15.6c-0.9-1.4-1.5-3-1.6-4.6c-1.1-8.4-1.6-17-1.6-25.5c3.3,0,7.1,0,10.4,0c4.3,6.8,9.7,14.8,15.6,22.8
	c9.2,12.1,21.7,26,36.4,26c3.7-0.3,7.5-0.7,11.2-1.4c-17.1-5.9-39.3-34.9-49.5-50.3L306.5,489.7z M291.3,486.2h-8.5v-14.6
	c0-8.8,0-18.8,0.7-27.3c2.5,0,5.5-0.5,8.3-0.5c12.4,0,22.4,6.6,22.4,20c0.4,12-9.1,22.1-21.1,22.4c-0.5,0-1,0-1.5,0L291.3,486.2z
	 M180.9,392.2c6.7-1.3,11.5-7.1,11.8-13.9c0-10.1-8.9-13-17.3-13H164h-5.6c0.6,1,1,2,1.1,3.2c0.4,5.2,0,13.3,0,19.9
	c0,4.6,0,9.4,0,14c0,2.3,0,4.5,0,6.8c-0.1,1.6,1,3,2.6,3.1c0.3,0,0.6,0,0.9,0c2.1,0,4.2,0,6.2,0c-0.7-6.1-1-12.3-0.9-18.4h5.2
	c3.2,5.8,6.8,11,11,16.8c3,4.6,8.2,7.2,13.7,6.8h2.3C193,409.8,186.5,401.3,180.9,392.2z M170.5,389.6h-2.7v-4.7c0-3.5,0-12,0-15.6
	h4.2c6-0.7,11.3,3.6,12,9.6c0,0.3,0,0.5,0.1,0.8C184.3,387.5,177.2,389.8,170.5,389.6L170.5,389.6z M128.9,365.4h-17.2
	c0.8,2.8,1.2,5.6,1.1,8.5c0,6.8,0,13.8,0,20.5c0,4.8,0,9.4,0,14.1c-0.3,1.8,0.9,3.5,2.7,3.9c0.2,0,0.5,0.1,0.7,0h5.9
	c-0.5-5.7-0.6-12.3-0.6-18.4c1.5,0,2.9,0,4.4,0c9.6,0,20.1-4.6,20.1-15.6C145.7,368.4,137.3,365.6,128.9,365.4L128.9,365.4z
	 M125,390.2c-1.2,0-2.8,0-3.8,0v-20.5h4.7c6.2,0,11,2.4,11,9.4c0.2,6-4.5,11-10.5,11.1C125.9,390.2,125.5,390.2,125,390.2L125,390.2
	z M225.3,508.7L200,450.9c-0.3-2.1-2.1-3.6-4.2-3.6h-1.6L165,509.6c-0.5,0.9-0.7,1.9-0.7,2.9c0.2,1.1,1.3,1.7,2.4,1.5c0,0,0,0,0.1,0
	h6.4c-0.1-0.5-0.1-1,0-1.5c0-1.2,0.3-2.5,0.7-3.6l6.2-15.1h25l6.8,16.9c0.4,1.9,2.1,3.3,4.1,3.2h12.4
	C227.1,512.4,226,510.7,225.3,508.7z M182.6,487.9l10.4-24.6l9.9,24.6C202.9,487.9,182.6,487.9,182.6,487.9z"/>
<rect x="60.1" y="72.1" class="st0" width="519.8" height="243.9"/>
<path class="st1" d="M545.2,102.5H495c1.7,16.1,2.3,32.3,1.8,48.5c0,16.7-1.4,45-1.4,50c-0.3,2.5,1.5,4.7,4,4.9c0.4,0,0.8,0,1.2,0
	h12.8c-0.8-2.3-1.3-4.7-1.4-7.1c-1.1-15-1.5-30.3-1.5-45.2l7.7-0.5c8-0.5,16.1,0.5,23.8,2.8c0.8-1.6,1.3-3.4,1.5-5.2
	c-0.5-3.1-3.5-5.2-6.6-4.7c-0.1,0-0.3,0-0.4,0.1h-26c0-12.2,0.5-24.4,1-36.4h8.1c7.2,0,26,0,31.7,3.5c0.5-1.8,0.6-3.7,0.5-5.6
	c-0.3-3.1-3-5.5-6.2-5.2C545.4,102.4,545.3,102.4,545.2,102.5z M481.1,107.8h-43.6c2.4,4.3,2.3,34.5,2.3,40.8
	c0,13-1.2,31.7-1.2,39.1c-0.4,2.2,1.1,4.4,3.4,4.7c0.2,0,0.4,0,0.5,0.1h12.9c-1.5-5.5-2.2-11.2-2.1-16.8c0-6.8,0-15.2,0-24.7
	c1.8,0,5.2-0.4,7.6-0.4c6.7-0.4,13.5,0.5,19.9,2.8c0-1.8,0.5-3.6,0.5-5.5c-0.1-2.4-2.1-4.2-4.5-4.1c-0.2,0-0.4,0-0.7,0.1h-22.9
	c0-9.6,0.5-19.1,0.8-28.8h8.4c8.9-0.5,17.9,0.7,26.4,3.5v-0.5C488.8,112.6,487.3,107.8,481.1,107.8z M420,151.5c0-7,0-13.9,0.4-20.8
	c0-3.6,0.5-7.4,0.5-11.1c-0.2-1.7-1.7-3-3.4-2.8c0,0,0,0,0,0h-11.9c1.4,10.7,1.9,21.5,1.6,32.3c0,6.7,0,13.5-0.4,20.4
	c0,3.1,0,6.3,0,9.4c-0.1,2.1,1.4,3.9,3.5,4c0.1,0,0.2,0,0.3,0c3.8,0,7.4,0,11.2,0c-1.5-10.4-2.1-20.9-2-31.4H420z M535.4,231.7h-6.2
	c-1.2,3.9-2.9,7.5-5.2,10.9c-2.5,4.3-5.2,8.5-6.4,10.1c-3.9-6-7.4-12.2-11.2-18.3c-1-1.9-3.1-3-5.2-2.7h-7.8
	c6.7,9,12.8,18.3,18.7,27.8v5.2c0,4.5-0.5,9-0.5,11.6c0.1,1.5,1.5,2.6,3,2.5c0.1,0,0.2,0,0.3-0.1h6.3c-0.6-6.7-0.7-13.4-0.7-20.2
	c3.4-5.9,7.3-11.5,11.2-16.9c1.7-2.4,3.4-4.8,5.2-7.1c0.2-0.4,0.3-0.8,0.3-1.3c0-0.8-0.6-1.5-1.4-1.5
	C535.6,231.7,535.5,231.7,535.4,231.7z M489.4,231.7h-34.5c-2.5-0.3-4.9,1.5-5.2,4c0,0.1,0,0.2,0,0.3v2.4c5.2-0.7,10.4-0.9,15.6-0.8
	c0.3,6,0.3,11.2,0.3,16.9c0,9.6-0.5,14.1-0.5,21.2c-0.1,1.7,1.2,3.1,2.9,3.3c0.3,0,0.6,0,0.9-0.1h5.9c-0.7-8-0.9-16-0.7-24
	c0-5.6,0-12.9,0-17c4.6,0,9.1,0.6,12.4,0.6c1.9-0.3,3.3-2.1,3-4c0-0.1,0-0.2,0-0.2v-2.4l0,0V231.7z M441.9,252.9
	c0-9.4,0.5-11.6,0.5-17.4c0.4-1.8-0.8-3.6-2.6-4c-0.4-0.1-0.8-0.1-1.3,0h-5.6c0.6,7.3,0.9,14.6,0.7,21.9c0,11.7-0.5,14.4-0.5,21.5
	c-0.3,1.9,1,3.6,2.9,3.9c0.2,0,0.5,0,0.7,0h5.9c-0.5-5.3-0.8-13.2-0.8-25.8L441.9,252.9z M399.1,242.5c0.2-3.9,3.5-6.8,7.4-6.6
	c0.1,0,0.3,0,0.4,0c4.2,0,8.1,2.2,10.4,5.7c1.3-1.7,2.2-3.7,2.5-5.9c0-4-9.1-4.9-12.1-4.9c-8.3,0-16.3,4.4-16.3,13.3
	c0,15.6,22.2,11.5,22.2,21.8c0.2,4.4-3.3,8-7.6,8.2c-0.3,0-0.6,0-0.9,0c-5.4-0.1-10.4-2.7-13.5-7.1c-0.6,1.9-1,3.8-1.2,5.7
	c-0.2,1.8,0.9,3.5,2.5,4.3c3.1,1.6,6.5,2.4,10,2.4c9.4,0,18.4-5.2,18.4-15.6C421.1,248.8,399.1,253.6,399.1,242.5L399.1,242.5z
	 M331.1,271.9c-4.6,1.6-9.4,2.2-14.2,2h-3.3c-1.8,0-1.8-1-1.8-2.5s0-9.9,0-11.1v-3.6c5.8-0.2,11.5,0.3,17.2,1.5c0-1.2,0-2.5,0-3.8
	c0-1.6-1.3-2.9-2.8-2.9c-0.2,0-0.5,0-0.7,0.1c-4.5,0-9.4,0.5-13.9,0.5v-8.3c0-2.3,0-4.8,0.4-7.2c6.3-0.3,12.6,0.3,18.8,1.7
	c0-2.8,0-6.4-4.1-6.4h-24.7c0.5,0.8,0.9,1.7,1,2.7c0.4,5.7,0.4,11.5,0.4,17.2c0,8-0.4,15.6-0.4,23.8c-0.3,1.4,0.5,2.8,1.9,3.1
	c0.3,0.1,0.6,0.1,0.9,0.1h21.8c1.8,0.2,3.4-1,3.6-2.8c0-0.2,0-0.3,0-0.5V271.9L331.1,271.9z M292.1,231.6h-6.6
	c0.1,2.6-0.4,5.2-1.6,7.5c-3.7,9-8.6,20.3-12.3,28c-2.4-5.2-6.2-14.3-9.3-21.6c-1.6-3.7-2.8-6.9-4.4-10.4c-1-2.4-3.4-3.8-6-3.4h-6.1
	c7.3,15.6,14.6,31.2,21.1,47.5h6.2c6.2-15.1,13.3-29.7,20.2-44.7c0.1-0.3,0.1-0.6,0-0.8c0.3-0.9-0.2-1.8-1.1-2.1
	C292.3,231.6,292.2,231.6,292.1,231.6L292.1,231.6z M176.5,107.1c-8.9-4.4-18.7-6.7-28.6-6.7c-32.7,0-54.4,26.4-54.4,58.5
	c0,31.2,23.8,51.5,54.2,51.5c11.3,0.2,22.5-3,32-9.1l-1.2-10.4c-6.7,6.3-15.4,10-24.5,10.4c-26.8,0-44.8-22.3-44.8-48.3
	c0-22.2,12.7-44,37.1-44c8.2-0.2,16.2,2.6,22.6,7.9c3.5,3,6,7,7.1,11.5c3.1-4.2,5.3-9,6.2-14.1C181.7,110.9,179.6,108.2,176.5,107.1
	z M235.9,253c0-9.4,0.5-11.6,0.5-17.4c0.4-1.8-0.7-3.6-2.5-4c-0.4-0.1-0.8-0.1-1.3,0h-5.7c0.6,7.3,0.9,14.6,0.7,21.9
	c0,11.7-0.5,14.4-0.5,21.5c-0.3,1.9,1,3.6,2.9,3.9c0.3,0,0.6,0,0.9,0h5.9C236.2,273.5,235.9,265.6,235.9,253z M210.3,231.8h-4.7
	c0.4,7.9,0.5,15.6,0.5,23.8v8.2c-11.4-10.4-22.1-21.5-33.3-32.4h-3.6c0,2.2,0,4.5,0,6.8c0,9.1,0,21.6-0.4,27.4s-0.8,7.8-0.8,11.2
	c-0.1,1.1,0.6,2,1.7,2.1c0.3,0,0.5,0,0.8-0.1h5.2c-0.6-5-0.9-10.1-0.8-15.1c0-5.8,0-11.3,0-17.2c11.3,11.1,22.6,21.5,33.3,33.2h3.7
	c0-8-0.4-15.6-0.4-23.7c0-4.4,0.4-8.4,0.5-12.4c0.1-4,0.6-7.2,0.6-9.3c0.2-1.2-0.5-2.3-1.7-2.5C210.7,231.8,210.5,231.8,210.3,231.8
	z M151.9,231.8h-4.4c0.7,4.3,1,8.6,0.9,12.9c0,2.8,0,7.9,0,12c0,9.6-2.9,17.2-14.1,17.2c-12.9,0-14.2-7.8-14.2-18.8
	c0-7.1,0.7-15.6,0.7-21.3c0.1-1.2-0.9-2.2-2-2.2c-0.2,0-0.3,0-0.5,0h-7.1c0.4,5.2,0.5,8.7,0.5,16.8c0,3.4,0,8.1,0,11.6
	c0,14,7.9,19.6,21.3,19.6c13.4,0,20.8-6.8,21.4-19.9c0.6-13,1.1-21.5,1.1-25.6c0.1-1.4-0.9-2.7-2.3-2.8c-0.4,0-0.8,0-1.2,0.1V231.8z
	 M347.3,108.2l-32.1,0.3c1.7,2.7,2.4,7.6,2.9,17.4c0.5,7.2,0.6,14.5,0.6,21.8c0,8.9,0,17.7-0.4,26.6c0,4.9-0.5,9.8-0.5,14.6
	c0.1,2.1,1.9,3.6,3.9,3.5c0,0,0,0,0.1,0H346c27.2,0,47.5-15,47.5-43.4S374.4,108.2,347.3,108.2z M347.3,185.1h-10.4
	c-1.9,0.4-3.7-0.9-4.1-2.7c0-0.2-0.1-0.5-0.1-0.7c-0.4-2.8-0.6-5.6-0.6-8.4c0-5.5-0.4-13.7-0.4-20.5c0-12.6,0.5-25.1,1-37.7
	c3-0.4,6.1-0.7,9.1-0.6c21.7,0,36.4,12.3,36.4,35.1c0.5,20.1-9.1,35.6-30.8,35.6L347.3,185.1z M366.1,258.7
	c6.7-1.2,11.6-7,11.9-13.8c0-10.1-8.8-13-17.3-13h-11.4c-1.8,0-3.6,0-5.6,0c0.7,0.9,1,2,1.1,3.2c0.4,5.2,0,13.2,0,19.8
	c0,4.8,0,9.5,0,14.1c0,2.2,0,4.5,0,6.7c-0.2,1.5,0.9,2.9,2.5,3.1c0.3,0,0.7,0,1-0.1h6.2c-0.7-6.1-1-12.3-0.8-18.4h5.2
	c3.6,5.9,7.2,11.3,11.4,17c3,4.6,8.2,7.2,13.7,6.8h2.5c-7.5-7.8-14.2-16.3-20-25.5H366.1z M355.7,256.2h-2.4v-4.7
	c0-3.5,0-12.1,0.4-15.6h4.1c6-0.7,11.3,3.6,12,9.6c0,0.3,0,0.5,0.1,0.8c-0.1,7.7-7.1,9.9-13.8,9.9H355.7z M230.1,178.2L205,120.4
	c-0.3-2.1-2.1-3.6-4.2-3.6h-1.6L170,178.9c-0.5,0.9-0.8,2-0.7,3.1c0,1.1,1.4,1.4,2.4,1.4h6.4c-0.1-0.5-0.1-1,0-1.5
	c0-1.2,0.3-2.5,0.7-3.6l6-15.2h25l7,17c0.5,1.9,2.3,3.2,4.3,3.1h12.4c-1.4-1.3-2.4-3-3.2-4.7L230.1,178.2z M187.1,157.4l10.8-24.6
	l9.8,24.6h-20.3H187.1z M279.4,159.3c12.7-3.3,21.7-14.7,21.8-27.8c0-17.6-15.6-24-31.2-24c-9.9,0-19.9,0-29.9,0.4
	c1.2,3.1,1.8,6.3,1.7,9.6c0,12.1,0,23,0,31.4c0,23.3-1.1,36.7-1.1,41.1c0,1.8,0.7,2.1,2.3,2.1h15.6c-0.7-1.4-1.1-2.9-1.1-4.5
	c-1.1-8.4-1.6-17-1.6-25.5c3.3,0,7.1,0,10.4,0c4.3,6.8,9.7,14.8,15.6,22.8c9.2,12.1,21.7,26,36.4,26c3.6-0.1,7.2-0.3,10.8-0.7
	c-17.1-6.3-39.3-35.3-49.5-50.6L279.4,159.3z M264.2,155.9h-8.5v-14.4c0-8.8,0-18.8,0.7-27.3c2.8-0.3,5.7-0.5,8.5-0.5
	c12.4,0,22.5,6.6,22.5,20c0.4,12-9,22.1-21.1,22.5c-0.6,0-1.2,0-1.9,0L264.2,155.9z"/>
<rect x="60.1" y="316" class="st1" width="519.8" height="12.2"/>
</svg>
